<svg viewBox="0 0 1024 1024" version="1.1" xmlns="http://www.w3.org/2000/svg" width="200" height="200"><path d="M732.8 595.2h172.8l-12.8 12.8-355.2 342.4c-6.4 6.4-16 9.6-25.6 9.6s-19.2-3.2-25.6-9.6L131.2 604.8s-6.4-3.2-12.8-12.8h211.2c16 0 32-12.8 35.2-28.8l41.6-160 105.6 384c3.2 16 19.2 25.6 35.2 25.6 16 0 28.8-9.6 35.2-25.6l83.2-278.4 32 64c6.4 12.8 19.2 22.4 35.2 22.4z m291.2-246.4c0 67.2-28.8 124.8-57.6 172.8h-211.2l-64-124.8c-6.4-12.8-22.4-22.4-35.2-19.2-16 3.2-28.8 12.8-32 25.6l-73.6 246.4L438.4 256c-3.2-16-19.2-25.6-35.2-25.6-16 0-32 12.8-35.2 28.8l-67.2 265.6H57.6C28.8 476.8 0 416 0 348.8c0-166.4 102.4-268.8 272-268.8 99.2 0 195.2 80 240 124.8 44.8-44.8 137.6-124.8 240-124.8 169.6 3.2 272 102.4 272 268.8z" fill="#d795fb"></path></svg>